<svg id="Layer_1" data-name="Layer 1" xmlns="http://www.w3.org/2000/svg" viewBox="0 0 442.76 148.63"><defs><style>.cls-1{fill:#ffe985;}.cls-1,.cls-2{stroke:#515151;}.cls-2{fill:#b22712;}.cls-3{fill:none;}.cls-3,.cls-4{stroke:#565555;}.cls-4{fill:#24b234;}.cls-5{font-size:120.2px;fill:#50c25d;font-family:SnapITC-Regular, Snap ITC;}.cls-6{letter-spacing:-0.03em;}.cls-7{letter-spacing:0em;}.cls-8{letter-spacing:0.01em;}.cls-9{letter-spacing:-0.03em;}.cls-10{font-family:MyriadPro-Regular, Myriad Pro;fill:#000;}.cls-11{fill:#3700ff;font-family:InkFree, Ink Free;letter-spacing:0em;}</style></defs><path class="cls-1" d="M26.21,14.6H41.15A25.71,25.71,0,0,1,66.85,40.3v64.88A12.35,12.35,0,0,1,54.5,117.54h-42a12,12,0,0,1-12-12V40.3A25.71,25.71,0,0,1,26.21,14.6Z"/><path class="cls-2" d="M10,61.77H57.5a9.35,9.35,0,0,1,9.35,9.35V96.36a0,0,0,0,1,0,0H.5a0,0,0,0,1,0,0V71.3A9.53,9.53,0,0,1,10,61.77Z"/><path class="cls-3" d="M29.41,9.21h7.88A4.68,4.68,0,0,1,42,13.89v.32a0,0,0,0,1,0,0H25.38a0,0,0,0,1,0,0v-1A4,4,0,0,1,29.41,9.21Z"/><path class="cls-4" d="M18.78,39.77H48.7A7.2,7.2,0,0,1,55.9,47V61.77a0,0,0,0,1,0,0H11.81a0,0,0,0,1,0,0v-15A7,7,0,0,1,18.78,39.77Z"/><text class="cls-5" transform="translate(77.04 109.2) scale(0.33 1)"><tspan class="cls-6">B</tspan><tspan class="cls-7" x="90.27" y="0">A</tspan><tspan class="cls-8" x="191.98" y="0">C</tspan><tspan x="287.53" y="0">K</tspan><tspan class="cls-9" x="387.77" y="0">P</tspan><tspan class="cls-7" x="481.09" y="0">A</tspan><tspan class="cls-8" x="582.8" y="0">C</tspan><tspan x="678.35" y="0">K</tspan><tspan class="cls-10" x="778.59" y="0"> </tspan><tspan class="cls-11" x="804.08" y="0">SHOP</tspan></text></svg>